<svg width="64" height="64" version="1.1" viewBox="0 0 16.933 16.933" xmlns="http://www.w3.org/2000/svg" xmlns:xlink="http://www.w3.org/1999/xlink">
 <defs>
  <linearGradient id="a">
   <stop stop-color="#34cecc" offset="0"/>
   <stop stop-color="#409b9a" offset="1"/>
  </linearGradient>
  <linearGradient id="c" x1="1.7363" x2="11.773" y1="10.115" y2="10.115" gradientUnits="userSpaceOnUse" xlink:href="#a"/>
  <linearGradient id="b" x1="1.7363" x2="11.773" y1="10.115" y2="10.115" gradientTransform="matrix(1 0 0 1.0004 0 -.0053462)" gradientUnits="userSpaceOnUse" xlink:href="#a"/>
 </defs>
 <g transform="translate(.78548 -.74008)">
  <g transform="matrix(1.2514 0 0 1.2514 -.77162 -3.4478)">
   <g style="mix-blend-mode:normal">
    <rect transform="scale(1 -1)" x="6.6524" y="-16.772" width="5.1209" height="11.751" fill="url(#c)" stroke-dasharray="0, 6.13344, 12.2668, 18.4002, 24.5339, 30.6674, 36.8008, 42.9342, 49.0678, 55.2013, 61.3343, 67.4684, 73.6015, 79.7343, 85.8671" stroke-dashoffset="31.281" stroke-width="6.1334"/>
    <rect x="1.7363" y="3.4532" width="5.0231" height="11.794" fill="url(#b)" stroke-dasharray="0, 6.08563, 12.1714, 18.2569, 24.3426, 30.4284, 36.5141, 42.5996, 48.6853, 54.771, 60.8563, 66.9424, 73.028, 79.1135, 85.199" stroke-dashoffset="31.037" stroke-width="6.0856"/>
   </g>
   <g transform="matrix(.20607 0 0 .16986 7.2348 12.849)" fill="#fff" stroke-width=".26458px" style="shape-inside:url(#rect298);white-space:pre" aria-label="HARCKADE.COM">
    <path d="m-1.778 17.567h0.28215v0.94878h1.0232v-0.94878h0.28215v2.3146h-0.28215v-1.1023h-1.0232v1.1023h-0.28215z"/>
    <path d="m1.0668 17.875-0.38292 1.1519h0.76739zm-0.15968-0.30851h0.32091l0.79375 2.3146h-0.29301l-0.19069-0.59376h-0.93948l-0.18914 0.59376h-0.29766z"/>
    <path d="m3.3116 18.796q0.091467 0.03411 0.17673 0.14573 0.085266 0.11162 0.17208 0.30696l0.2868 0.63252h-0.30386l-0.26665-0.59376q-0.10232-0.23254-0.19999-0.30851-0.096118-0.075964-0.26355-0.075964h-0.30696v0.97823h-0.28215v-2.3146h0.63562q0.35812 0 0.5333 0.16588t0.17518 0.50074q0 0.21859-0.091467 0.36277-0.089917 0.14418-0.2651 0.19999zm-0.70538-0.97203v0.82166h0.35347q0.20464 0 0.30851-0.10387 0.10387-0.10542 0.10387-0.30851t-0.10387-0.30541q-0.10387-0.10387-0.30851-0.10387z"/>
    <path d="m5.7099 17.745v0.33021q-0.14263-0.14728-0.30386-0.22014-0.16123-0.072864-0.34261-0.072864-0.35657 0-0.54725 0.2434-0.18914 0.24184-0.18914 0.70073 0 0.45734 0.18914 0.70073 0.19069 0.24184 0.54725 0.24184 0.18138 0 0.34261-0.07286t0.30386-0.22014v0.32711q-0.14728 0.11162-0.31316 0.16743t-0.34882 0.05581q-0.47439 0-0.74569-0.32091-0.2713-0.32246-0.2713-0.87902 0-0.5581 0.2713-0.87902 0.2713-0.32246 0.74569-0.32246 0.18604 0 0.35192 0.05581 0.16588 0.05426 0.31006 0.16433z"/>
    <path d="m6.1456 17.567h0.28215v0.97824l0.93483-0.97824h0.36277l-1.034 1.079 1.1069 1.2356h-0.37052l-0.99994-1.1147v1.1147h-0.28215z"/>
    <path d="m8.6586 17.875-0.38292 1.1519h0.7674zm-0.15968-0.30851h0.32091l0.79375 2.3146h-0.29301l-0.19069-0.59376h-0.93948l-0.18914 0.59376h-0.29766z"/>
    <path d="m10.198 17.824v1.7999h0.33951q0.43098 0 0.63097-0.21704 0.20154-0.21704 0.20154-0.68523 0-0.46509-0.20154-0.68058-0.19999-0.21704-0.63097-0.21704zm-0.28215-0.25735h0.57826q0.60616 0 0.88832 0.2806 0.2837 0.27905 0.2837 0.87436 0 0.59841-0.28525 0.87902-0.2837 0.2806-0.88677 0.2806h-0.57826z"/>
    <path d="m12.116 17.567h1.3162v0.26355h-1.034v0.68523h0.99219v0.26355h-0.99219v0.83871h1.0604v0.26355h-1.3426z"/>
    <path d="m13.945 19.488h0.29456v0.39377h-0.29456z"/>
    <path d="m16.387 17.745v0.33021q-0.14263-0.14728-0.30386-0.22014-0.16123-0.072864-0.34262-0.072864-0.35657 0-0.54725 0.2434-0.18914 0.24184-0.18914 0.70073 0 0.45734 0.18914 0.70073 0.19069 0.24184 0.54725 0.24184 0.18138 0 0.34262-0.07286 0.16123-0.07286 0.30386-0.22014v0.32711q-0.14728 0.11162-0.31316 0.16743t-0.34882 0.05581q-0.47439 0-0.74569-0.32091-0.2713-0.32246-0.2713-0.87902 0-0.5581 0.2713-0.87902 0.2713-0.32246 0.74569-0.32246 0.18604 0 0.35192 0.05581 0.16588 0.05426 0.31006 0.16433z"/>
    <path d="m17.667 17.779q-0.30696 0-0.48834 0.25425-0.17983 0.25425-0.17983 0.69298 0 0.43718 0.17983 0.69143 0.18138 0.25425 0.48834 0.25425t0.48679-0.25425 0.17983-0.69143q0-0.43873-0.17983-0.69298t-0.48679-0.25425zm0-0.25425q0.43873 0 0.70073 0.32711 0.262 0.32556 0.262 0.87436 0 0.54725-0.262 0.87436-0.262 0.32556-0.70073 0.32556t-0.70228-0.32556q-0.262-0.32556-0.262-0.87436t0.262-0.87436q0.26355-0.32711 0.70228-0.32711z"/>
    <path d="m19.07 17.567h0.42013l0.53175 1.5751 0.5333-1.5751h0.42013v2.3146h-0.2744v-2.0324l-0.53795 1.5875h-0.28215l-0.53795-1.5875v2.0324h-0.27285z"/>
   </g>
   <g transform="matrix(.78394 0 0 .78394 .35956 3.4967)">
    <rect transform="matrix(.80561 .59244 -.59664 .80251 0 0)" x="7.791" y="-1.7654" width="1.361" height="5.3118" fill="#4e908f" stroke-width=".26386"/>
    <g fill="#e5e8e8">
     <rect x="4.2334" y="8.1603" width="4.4176" height="1.1576" ry=".57878" stroke-width=".25457"/>
     <rect x="7.3306" y="3.1902" width="1.3929" height="10.538" ry="0" stroke-dasharray="0, 3.82462, 7.64928, 11.4739, 15.2986, 19.1233, 22.9479, 26.7724, 30.5973, 34.422, 38.2462, 42.0714, 45.8954, 49.7204, 53.5444" stroke-dashoffset="19.506" stroke-width="3.8246"/>
     <rect x="3.932" y="3.1897" width="1.3929" height="10.538" ry="0" stroke-dasharray="0, 3.82462, 7.64928, 11.4739, 15.2986, 19.1233, 22.9479, 26.7724, 30.5973, 34.422, 38.2462, 42.0714, 45.8954, 49.7204, 53.5444" stroke-dashoffset="19.506" stroke-width="3.8246"/>
     <path transform="matrix(.3375 0 0 .3375 -.9325 -3.5164)" d="m34.549 24-10.049 14.5v4.0312l1.5059 1.043 13.566-19.574z" stroke-dasharray="0, 11.3321, 22.6643, 33.9964, 45.3287, 56.661, 67.993, 79.3248, 90.6577, 101.99, 113.321, 124.655, 135.985, 147.318, 158.648" stroke-dashoffset="57.794" stroke-width="11.332"/>
     <path d="m8.3067 10.325 3.1779 3.4027h1.9057l-5.0836-5.4436z" stroke-dasharray="0, 3.82463, 7.64928, 11.4739, 15.2986, 19.1233, 22.9479, 26.7724, 30.5973, 34.422, 38.2463, 42.0715, 45.8954, 49.7204, 53.5443" stroke-dashoffset="19.506" stroke-width="3.8246"/>
    </g>
   </g>
   <g transform="matrix(.74104 0 0 .61082 3.445 -7.1523)" fill="#fff" stroke-width=".26458px" style="shape-inside:url(#rect298-7);white-space:pre" aria-label="CMS">
    <path d="m-0.2184 17.745v0.33021q-0.14263-0.14728-0.30386-0.22014t-0.34261-0.07286q-0.35657 0-0.54725 0.2434-0.18914 0.24184-0.18914 0.70073 0 0.45734 0.18914 0.70073 0.19069 0.24184 0.54725 0.24184 0.18138 0 0.34261-0.07286t0.30386-0.22014v0.32711q-0.14728 0.11162-0.31316 0.16743t-0.34882 0.05581q-0.47439 0-0.74569-0.32091-0.2713-0.32246-0.2713-0.87902 0-0.5581 0.2713-0.87902 0.2713-0.32246 0.74569-0.32246 0.18604 0 0.35192 0.05581 0.16588 0.05426 0.31006 0.16433z"/>
    <path d="m0.21724 17.567h0.42013l0.53175 1.5751 0.5333-1.5751h0.42013v2.3146h-0.2744v-2.0324l-0.53795 1.5875h-0.28215l-0.53795-1.5875v2.0324h-0.27285z"/>
    <path d="m3.9302 17.643v0.30541q-0.15968-0.08527-0.30231-0.12712-0.14263-0.04186-0.2744-0.04186-0.23099 0-0.35657 0.09922-0.12402 0.09922-0.12402 0.28215 0 0.15348 0.082165 0.23254 0.083716 0.07751 0.31626 0.12557l0.16898 0.03876q0.31626 0.06666 0.46509 0.23564 0.15038 0.16743 0.15038 0.44958 0 0.33641-0.20309 0.51005-0.20154 0.17363-0.59376 0.17363-0.14883 0-0.31626-0.03721-0.16588-0.03721-0.34417-0.11007v-0.32246q0.17208 0.10697 0.33641 0.16123t0.32401 0.05426q0.2403 0 0.37207-0.10542t0.13177-0.30076q0-0.17053-0.094568-0.26665t-0.31006-0.14418l-0.17053-0.037207q-0.31626-0.069763-0.45734-0.21859-0.13953-0.14883-0.13953-0.41393 0-0.30696 0.19379-0.48369 0.19534-0.17673 0.5364-0.17673 0.14728 0 0.29921 0.02946 0.15193 0.02945 0.31006 0.08837z"/>
   </g>
  </g>
 </g>
</svg>
